#!OML:ASF F:\VICON\USERDATA\INSTALL\rory3\rory3.ASF
:FULLY-SPECIFIED
:DEGREES
31
root 1.28856 17.8192 -16.0635 5.18315 -3.93011 0.15438
lowerback 6.74851 -0.287317 -1.48295
upperback 0.815909 -0.412043 2.57576
thorax -2.9126 -0.176564 3.537
lowerneck -15.3357 -2.84589 -9.54762
upperneck 27.4938 -2.32194 3.14936
head 11.7002 -1.6526 2.4583
rclavicle 2.05742e-014 1.51076e-014
rhumerus -33.2293 -10.2207 -77.7363
rradius 32.8521
rwrist 3.61902
rhand -12.3582 17.4177
rfingers 7.12502
rthumb 13.7118 -12.1105
lclavicle 2.05742e-014 1.51076e-014
lhumerus -32.26 11.1852 84.5356
lradius 32.1699
lwrist -5.82116
lhand -13.6377 33.0835
lfingers 7.12502
lthumb 12.4784 62.6909
rfemur -12.6383 5.28072 20.4606
rtibia 22.3038
rfoot -9.51549 -8.80757
rtoes 2.82655
lfemur -13.5193 -2.34366 -22.7032
ltibia 22.0915
lfoot -10.3055 5.66274
ltoes 1.51089
32
root 1.2801 17.8164 -16.0634 5.259 -3.84119 0.0778711
lowerback 6.67014 -0.302717 -1.34329
upperback 0.789242 -0.422161 2.56281
thorax -2.89673 -0.183145 3.44454
lowerneck -15.2715 -2.87467 -9.53011
upperneck 27.5764 -2.40884 3.25914
head 11.7259 -1.67843 2.48533
rclavicle -4.67144e-015 3.97569e-015
rhumerus -33.2353 -10.5153 -77.7003
rradius 33.0472
rwrist 3.2254
rhand -12.2194 17.5851
rfingers 7.12502
rthumb 13.8456 -11.9341
lclavicle -4.67144e-015 3.97569e-015
lhumerus -32.3219 10.8778 84.6039
lradius 31.6565
lwrist -4.29436
lhand -16.5364 29.904
lfingers 7.12502
lthumb 9.6827 59.6615
rfemur -12.6929 5.18502 20.5807
rtibia 22.2828
rfoot -9.50413 -8.79308
rtoes 2.7886
lfemur -13.6997 -2.4751 -22.581
ltibia 22.2668
lfoot -10.3639 5.72691
ltoes 1.34672
33
root 1.26748 17.8119 -16.0665 5.28945 -3.90783 0.0458722
lowerback 6.75407 -0.227955 -1.3717
upperback 0.746406 -0.324566 2.54882
thorax -2.99469 -0.132441 3.43871
lowerneck -15.3581 -2.95699 -9.35732
upperneck 27.7378 -2.57072 3.26632
head 11.8148 -1.73496 2.43666
rclavicle -9.93923e-017 -3.4191e-014
rhumerus -33.1501 -10.7817 -77.6729
rradius 33.2573
rwrist 3.04926
rhand -11.9554 17.0616
rfingers 7.12502
rthumb 14.1 -12.44
lclavicle -9.93923e-017 -3.4191e-014
lhumerus -32.4019 10.7234 84.6151
lradius 31.4281
lwrist -3.80055
lhand -17.7212 28.2822
lfingers 7.12502
lthumb 8.53942 58.0896
rfemur -12.6998 5.28908 20.655
rtibia 22.2305
rfoot -9.5133 -8.84548
rtoes 2.59575
lfemur -13.8492 -2.49245 -22.5024
ltibia 22.4777
lfoot -10.4779 5.83375
ltoes 1.11027
34
root 1.25289 17.8108 -16.071 5.24048 -3.91403 -0.0670831
lowerback 6.98453 -0.163274 -1.32576
upperback 0.705071 -0.233492 2.58069
thorax -3.17287 -0.0846193 3.44041
lowerneck -15.5375 -3.04311 -9.22193
upperneck 27.9689 -2.71195 3.25055
head 11.9494 -1.78938 2.38876
rclavicle 4.77083e-015 -1.11319e-014
rhumerus -33.0454 -11.0392 -77.6112
rradius 33.4148
rwrist 2.92208
rhand -11.855 16.3891
rfingers 7.12502
rthumb 14.1967 -13.1058
lclavicle 4.77083e-015 -1.11319e-014
lhumerus -32.4349 10.5097 84.6571
lradius 31.3673
lwrist -3.75491
lhand -17.5369 28.6733
lfingers 7.12502
lthumb 8.71728 58.4733
rfemur -12.6133 5.48281 20.8413
rtibia 22.2058
rfoot -9.50239 -9.00548
rtoes 2.81479
lfemur -13.9162 -2.47826 -22.3226
ltibia 22.6687
lfoot -10.5588 5.8527
ltoes 0.790901
35
root 1.23917 17.8105 -16.0774 5.24141 -3.75952 -0.200735
lowerback 7.04499 -0.167821 -1.22209
upperback 0.748008 -0.229715 2.65395
thorax -3.16267 -0.0842814 3.45795
lowerneck -15.9133 -3.18577 -9.37296
upperneck 28.3147 -2.90518 3.47457
head 12.1842 -1.8673 2.47261
rclavicle -3.19049e-014 -1.59028e-015
rhumerus -32.8027 -11.2176 -77.5341
rradius 33.5061
rwrist 2.83555
rhand -11.8934 15.9631
rfingers 7.12502
rthumb 14.1597 -13.5343
lclavicle -3.19049e-014 -1.59028e-015
lhumerus -32.3145 10.4775 84.7122
lradius 31.2253
lwrist -3.65758
lhand -17.0977 29.1969
lfingers 7.12502
lthumb 9.14106 58.9788
rfemur -12.5989 5.64206 21.0528
rtibia 22.2033
rfoot -9.4728 -9.26981
rtoes 2.98006
lfemur -14.0338 -2.4846 -22.1026
ltibia 22.7937
lfoot -10.5313 5.64529
ltoes 1.15873
36
root 1.22573 17.8083 -16.0823 5.29607 -3.70802 -0.179536
lowerback 7.07621 -0.174139 -1.33447
upperback 0.719068 -0.243984 2.72519
thorax -3.2084 -0.0885668 3.59796
lowerneck -16.0826 -3.2712 -9.54475
upperneck 28.5885 -3.00014 3.59447
head 12.3421 -1.91707 2.53594
rclavicle 6.26172e-015 1.35174e-014
rhumerus -32.6678 -11.1386 -77.4749
rradius 33.6556
rwrist 2.68649
rhand -11.8878 15.4558
rfingers 7.12502
rthumb 14.1651 -14.0413
lclavicle 6.26172e-015 1.35174e-014
lhumerus -32.3768 10.6972 84.7186
lradius 31.0959
lwrist -3.53743
lhand -17.0137 29.0534
lfingers 7.12502
lthumb 9.22212 58.8317
rfemur -12.6603 5.7505 21.0733
rtibia 22.1599
rfoot -9.47196 -9.40959
rtoes 3.12723
lfemur -14.1779 -2.45641 -22.0656
ltibia 22.8851
lfoot -10.5405 5.52566
ltoes 1.36176
